<?xml version="1.0" standalone="no"?><!DOCTYPE svg PUBLIC "-//W3C//DTD SVG 1.1//EN" "http://www.w3.org/Graphics/SVG/1.1/DTD/svg11.dtd"><svg t="1603951163996" class="icon" viewBox="0 0 1026 1024" version="1.1" xmlns="http://www.w3.org/2000/svg" p-id="15278" xmlns:xlink="http://www.w3.org/1999/xlink" width="128.25" height="128"><defs><style type="text/css"></style></defs><path d="M24.6784 1007.4112c-16.384-4.4032-26.112-21.2992-21.8112-37.5808L238.7968 89.4976c4.4032-16.2816 21.2992-26.112 37.5808-21.7088 16.2816 4.4032 26.112 21.2992 21.7088 37.5808L62.2592 985.7024c-4.4032 16.2816-21.2992 26.112-37.5808 21.7088z" p-id="15279"></path><path d="M512.7168 1007.2064c-16.2816 4.4032-33.28-5.4272-37.5808-21.7088L239.2064 105.1648c-4.4032-16.2816 5.4272-33.28 21.7088-37.5808 16.2816-4.4032 33.28 5.4272 37.5808 21.7088l235.8272 880.3328c4.5056 16.2816-5.3248 33.1776-21.6064 37.5808z" p-id="15280"></path><path d="M405.504 656.4864H129.024c-16.896 0-30.72-13.824-30.72-30.72s13.824-30.72 30.72-30.72h276.48c16.896 0 30.72 13.824 30.72 30.72s-13.824 30.72-30.72 30.72z" p-id="15281"></path><path d="M803.328 624.5376c43.1104 0 83.5584 16.7936 114.0736 47.2064 30.4128 30.4128 47.2064 70.9632 47.2064 114.0736 0 43.1104-16.7936 83.5584-47.2064 114.0736-30.4128 30.4128-70.9632 47.2064-114.0736 47.2064s-83.5584-16.7936-114.0736-47.2064C658.8416 869.376 642.048 828.8256 642.048 785.7152c0-43.1104 16.7936-83.5584 47.2064-114.0736 30.5152-30.4128 70.9632-47.104 114.0736-47.104m0-61.44c-122.9824 0-222.72 99.7376-222.72 222.72s99.7376 222.72 222.72 222.72S1026.048 908.8 1026.048 785.7152s-99.7376-222.6176-222.72-222.6176z" p-id="15282"></path><path d="M995.328 563.0976c-16.896 0-30.72 13.824-30.72 30.72v384c0 16.896 13.824 30.72 30.72 30.72s30.72-13.824 30.72-30.72v-384c0-16.896-13.824-30.72-30.72-30.72z" p-id="15283"></path></svg>