<?xml version="1.0" standalone="no"?><!DOCTYPE svg PUBLIC "-//W3C//DTD SVG 1.1//EN" "http://www.w3.org/Graphics/SVG/1.1/DTD/svg11.dtd"><svg t="1603946352415" class="icon" viewBox="0 0 1024 1024" version="1.1" xmlns="http://www.w3.org/2000/svg" p-id="14991" xmlns:xlink="http://www.w3.org/1999/xlink" width="128" height="128"><defs><style type="text/css"></style></defs><path d="M421.888 1.0752H44.7488A43.8272 43.8272 0 0 0 1.024 44.8V421.888c0 24.064 19.6608 43.6736 43.7248 43.6736h377.0368c24.064 0 43.7248-19.6608 43.7248-43.6736V44.8A43.8272 43.8272 0 0 0 421.888 1.0752zM372.6336 372.736H93.952V94.0032H372.736v278.6816zM979.2512 1.0752h-377.0368a43.8272 43.8272 0 0 0-43.7248 43.7248V421.888c0 24.064 19.6608 43.6736 43.7248 43.6736h377.0368c24.064 0 43.7248-19.6608 43.7248-43.6736V44.8a43.8272 43.8272 0 0 0-43.7248-43.7248z m-49.152 371.6096h-278.7328V94.0032h278.7328v278.6816z m-508.2624 185.8048H44.8a43.8272 43.8272 0 0 0-43.7248 43.7248v377.0368c0 24.064 19.6608 43.7248 43.7248 43.7248h377.0368c24.064 0 43.7248-19.6608 43.7248-43.7248v-377.0368a43.8272 43.8272 0 0 0-43.7248-43.7248z m-49.152 371.6096H93.952v-278.7328H372.736v278.7328z m557.4144 92.8768h49.152c24.064 0 43.7248-19.6608 43.7248-43.7248v-49.152h-92.8768v92.8768z m-185.856-92.8768h92.928v92.8768h-92.8768v-92.8768z" p-id="14992"></path><path d="M979.2512 558.4896h-49.152v185.8048H837.12v-185.8048h-235.008a43.8272 43.8272 0 0 0-43.6736 43.7248v377.0368c0 24.064 19.6608 43.7248 43.7248 43.7248h49.152v-278.6816h92.928v92.8768h278.6816v-235.008a43.8272 43.8272 0 0 0-43.7248-43.6736z" p-id="14993"></path><path d="M175.9232 790.7328a57.344 57.344 0 0 0 114.7904 0 57.344 57.344 0 0 0-114.7904 0z m0-557.4144a57.344 57.344 0 1 0 114.7904 0 57.344 57.344 0 0 0-114.7904 0z m557.4144 0a57.344 57.344 0 1 0 114.7392 0 57.344 57.344 0 0 0-114.688 0z" p-id="14994"></path></svg>