<?xml version="1.0" standalone="no"?><!DOCTYPE svg PUBLIC "-//W3C//DTD SVG 1.1//EN" "http://www.w3.org/Graphics/SVG/1.1/DTD/svg11.dtd"><svg t="1603944711747" class="icon" viewBox="0 0 1024 1024" version="1.1" xmlns="http://www.w3.org/2000/svg" p-id="14849" xmlns:xlink="http://www.w3.org/1999/xlink" width="128" height="128"><defs><style type="text/css"></style></defs><path d="M806.15893555-305.25223789H858.06933594v49.43847656h49.43847656v51.9104004h-49.43847656v46.47216796h-51.91040039v-46.47216796H759.19238281V-255.81376133h46.96655274z" p-id="14850"></path><path d="M116.4921875 434.67696126h791.015625v69.2138672H116.4921875z" p-id="14851"></path><path d="M511.99976804 90.30525647h0.00046392c0.00000613 0 0.00001146-0.00000532 0.00001145-0.00001187V90.30508263H512.00028638v0.00016196c0 0.00003026-0.00002453 0.00005482-0.00005442 0.00005483H511.99976804c-0.00002986 0-0.0000544-0.00002453-0.00005442-0.00005483V90.30508263h0.00004297v0.00016196c0 0.00000654 0.00000532 0.00001188 0.00001145 0.00001187zM512.00024342 90.30484899H512.00028638v0.00009448h-0.00004296zM511.99976804 90.30472668H512.00016364v0.00004295H511.99976804c-0.00000613 0-0.00001146 0.00000532-0.00001145 0.00001145v0.00016239H511.99971362V90.30478108c0-0.00003026 0.00002453-0.0000544 0.00005442-0.0000544z" p-id="14852"></path></svg>